<svg width="30" height="30" viewBox="0 0 30 30" fill="none" xmlns="http://www.w3.org/2000/svg">
<g clip-path="url(#clip0_13_68)">
<path d="M14.9552 3.9262C16.2974 3.02015 17.6397 2.21479 18.982 1.61076C20.3243 1.00673 21.6666 0.503376 22.9194 0.201363C24.6196 -0.10065 25.9619 -0.10065 27.0357 0.302034C28.199 0.704719 29.0044 1.51009 29.5413 2.61747C29.9887 3.62418 30.0782 4.83224 29.8992 6.24163C29.5413 8.15438 28.557 10.4698 26.8567 13.0873C26.5883 13.49 26.3198 13.8926 25.9619 14.2953C26.3198 14.7987 26.5883 15.2014 26.8567 15.604C28.557 18.2215 29.5413 20.5369 29.8992 22.4497C30.0782 23.7584 29.9887 25.0671 29.5413 26.0738C29.0044 27.0806 28.199 27.8859 27.0357 28.2886C26.1409 28.6913 25.067 28.792 23.7247 28.5906C23.6353 28.6913 23.6353 28.6913 23.5458 28.792C22.9194 29.4967 22.0245 30 21.1297 30C20.1453 30 19.34 29.4967 18.7136 28.792C18.0872 28.0873 17.6397 27.1812 17.6397 26.0738C17.6397 24.9665 18.0872 24.0604 18.7136 23.3557C19.34 22.651 20.1453 22.2483 21.1297 22.2483C22.0245 22.2483 22.9194 22.651 23.5458 23.3557C23.9932 23.8591 24.3511 24.5638 24.4406 25.3692C25.1565 25.3692 25.6934 25.3692 26.1409 25.1678C26.4988 25.0671 26.7672 24.8658 26.8567 24.5638C27.0357 24.1611 27.1252 23.6577 26.9462 22.953C26.7672 21.5436 25.9619 19.7316 24.5301 17.6175C24.3511 17.3155 24.1722 17.1141 23.9932 16.8121C22.114 19.0269 19.8769 21.141 17.6397 22.8524C14.0603 25.6712 10.2124 27.7853 7.08045 28.3893C5.38022 28.792 4.03794 28.6913 2.96412 28.2886C1.8008 27.8859 0.995435 27.0806 0.458522 26.0738C0.0110949 25.0671 -0.0783906 23.7584 0.10058 22.4497C0.369037 20.5369 1.35338 18.2215 3.0536 15.604C3.41154 15.2014 3.68 14.7987 3.94846 14.2953C3.68 13.8926 3.41154 13.49 3.0536 13.0873C1.35338 10.4698 0.369037 8.15438 0.10058 6.24163C-0.0783906 4.83224 0.0110949 3.62418 0.458522 2.61747C0.995435 1.51009 1.8008 0.704719 2.96412 0.302034C4.03794 -0.10065 5.38022 -0.10065 7.08045 0.201363C9.49655 0.704719 12.1811 2.01344 14.9552 3.9262ZM10.0335 15.4027C10.8388 15.4027 11.6442 15.8054 12.1811 16.4094C12.718 17.0134 13.076 17.9195 13.076 18.8255C13.076 19.8322 12.718 20.6376 12.1811 21.2416C11.6442 21.9463 10.8388 22.2483 10.0335 22.2483C9.2281 22.2483 8.42273 21.9463 7.88582 21.2416C7.3489 20.6376 6.99096 19.8322 6.99096 18.8255C6.99096 18.5235 6.99096 18.3222 7.08045 18.0202C6.63302 17.6175 6.27508 17.2148 5.91714 16.8121C5.73816 17.1141 5.55919 17.3155 5.46971 17.6175C4.03794 19.7316 3.23257 21.5436 2.96412 22.953C2.87463 23.6577 2.96412 24.1611 3.0536 24.5638C3.23257 24.8658 3.50103 25.0671 3.85897 25.1678C4.48537 25.3692 5.38022 25.4698 6.54353 25.1678C9.2281 24.5638 12.6285 22.7517 15.9395 20.2349C18.1766 18.5235 20.2348 16.5101 22.114 14.2953C20.2348 12.1812 18.1766 10.1678 15.9395 8.4564C12.6285 5.93962 9.2281 4.02687 6.54353 3.52351C5.38022 3.2215 4.48537 3.2215 3.85897 3.42284C3.50103 3.62418 3.23257 3.82552 3.0536 4.12754C2.96412 4.42955 2.87463 5.03358 2.96412 5.63761C3.23257 7.047 4.03794 8.95975 5.46971 11.0738C5.55919 11.3759 5.73816 11.5772 5.91714 11.8792C6.36456 11.3759 6.7225 10.9732 7.16993 10.4698C7.16993 10.2685 7.08045 9.96646 7.08045 9.76512C7.08045 8.75841 7.43839 7.85237 8.06479 7.24834C8.6017 6.54365 9.40707 6.14096 10.3019 6.14096C11.1073 6.14096 11.9127 6.54365 12.5391 7.24834C13.076 7.85237 13.4339 8.75841 13.4339 9.76512C13.4339 10.6712 13.076 11.5772 12.5391 12.2819C11.9127 12.8859 11.1073 13.2886 10.3019 13.2886C9.8545 13.2886 9.40707 13.1879 9.04913 12.9866C8.69118 13.49 8.24376 13.8926 7.88582 14.2953C8.24376 14.7987 8.6017 15.2014 9.04913 15.604C9.31758 15.5034 9.67553 15.4027 10.0335 15.4027ZM10.5704 18.3222C10.3914 18.1208 10.2124 18.0202 10.0335 18.0202C9.8545 18.0202 9.67552 18.1208 9.49655 18.3222C9.40707 18.4228 9.31758 18.6242 9.31758 18.8255C9.31758 19.0269 9.40707 19.2282 9.49655 19.4296C9.67552 19.5302 9.8545 19.6309 10.0335 19.6309C10.2124 19.6309 10.3914 19.5302 10.5704 19.4296C10.6599 19.2282 10.7494 19.0269 10.7494 18.8255C10.7494 18.6242 10.6599 18.4228 10.5704 18.3222ZM21.8455 25.1678C21.6666 24.9665 21.3981 24.8658 21.1297 24.8658C20.7717 24.8658 20.5033 24.9665 20.3243 25.1678C20.1453 25.4698 20.0558 25.7718 20.0558 26.0738C20.0558 26.3759 20.1453 26.7785 20.3243 26.9799C20.5033 27.1812 20.7717 27.2819 21.1297 27.2819C21.3981 27.2819 21.6666 27.1812 21.8455 26.9799C22.114 26.7785 22.2035 26.3759 22.2035 26.0738C22.2035 25.7718 22.114 25.4698 21.8455 25.1678ZM10.8388 9.06042C10.7494 8.95975 10.4809 8.85908 10.3019 8.85908C10.0335 8.85908 9.8545 8.95975 9.67553 9.06042C9.58604 9.26177 9.49655 9.46311 9.49655 9.76512C9.49655 9.96646 9.58604 10.2685 9.67553 10.3691C9.8545 10.5705 10.0335 10.6712 10.3019 10.6712C10.4809 10.6712 10.7494 10.5705 10.8388 10.3691C11.0178 10.2685 11.1073 9.96646 11.1073 9.76512C11.1073 9.46311 11.0178 9.26177 10.8388 9.06042ZM23.9932 11.8792C24.1722 11.5772 24.3511 11.3759 24.5301 11.0738C25.9619 8.95975 26.7672 7.047 26.9462 5.63761C27.0357 5.03358 27.0357 4.42955 26.8567 4.12754C26.7672 3.82552 26.4988 3.62418 26.1409 3.42284C25.5145 3.2215 24.6196 3.2215 23.4563 3.52351C22.4719 3.72485 21.3086 4.12754 20.0558 4.63089C19.34 5.03358 18.5346 5.43626 17.8187 5.93962C19.9664 7.65103 22.114 9.66445 23.9932 11.8792Z" fill="#2B3454"/>
</g>
<defs>
<clipPath id="clip0_13_68">
<rect width="30" height="30" fill="white"/>
</clipPath>
</defs>
</svg>
