<svg width="30" height="30" viewBox="0 0 30 30" fill="none" xmlns="http://www.w3.org/2000/svg">
<g clip-path="url(#clip0_13_83)">
<path d="M22.1243 2.41V0H7.5759V2.4H2.1001V9.21C2.10061 10.167 2.30351 11.1128 2.69514 11.9837C3.08677 12.8545 3.65803 13.6304 4.37049 14.2589C5.08294 14.8874 5.92004 15.354 6.82546 15.6273C7.73087 15.9006 8.68358 15.9743 9.61945 15.8433C10.5606 17.3233 11.7716 18.4067 13.134 18.9067V24.24H11.0147V26.24H9.29696L7.4344 30H22.2428L20.4032 26.25H18.6855V24.25H16.5662V18.9167C17.9286 18.4167 19.1396 17.3333 20.0807 15.8533C21.0166 15.9843 21.9693 15.9106 22.8747 15.6373C23.7802 15.364 24.6173 14.8974 25.3297 14.2689C26.0422 13.6404 26.6134 12.8645 27.0051 11.9937C27.3967 11.1228 27.5996 10.177 27.6001 9.22V2.41H22.1243ZM22.1243 5.22333H24.826V9.18667C24.816 10.1489 24.4594 11.0743 23.8231 11.7888C23.1867 12.5034 22.3146 12.9578 21.3707 13.0667C21.8771 11.4842 22.1315 9.83017 22.1243 8.16667V5.22333ZM8.32948 13.0667C7.38558 12.9578 6.51346 12.5034 5.87714 11.7888C5.24082 11.0743 4.88415 10.1489 4.8742 9.18667V5.22333H7.5759V8.16667C7.56868 9.83017 7.82306 11.4842 8.32948 13.0667ZM8.7507 14.9667C7.23962 14.9606 5.79166 14.3522 4.72008 13.2729C3.64851 12.1937 3.03949 10.7306 3.0248 9.2V3.33333H7.5759V4.27H3.95608V9.19333C3.96536 10.4648 4.46522 11.6822 5.34884 12.5854C6.23246 13.4885 7.42976 14.0058 8.68488 14.0267C8.81651 14.3467 8.95911 14.6556 9.11268 14.9533C8.99421 14.96 8.87904 14.9667 8.7507 14.9667ZM19.8306 27.1867L20.7553 29.0633H8.94485L9.86955 27.19H19.8306V27.1867ZM17.7608 26.25H11.9394V25.1767H17.7608V26.25ZM15.6415 24.25H14.0587V19.1533C14.5827 19.2417 15.1175 19.2417 15.6415 19.1533V24.25ZM14.8517 18.28C13.2294 18.28 11.6762 17.28 10.4783 15.46C9.20482 13.5233 8.50389 10.9333 8.50389 8.16333V0.946667H21.1996V8.16667C21.1996 10.9367 20.4987 13.5267 19.2251 15.4633C18.0273 17.28 16.4741 18.28 14.8517 18.28ZM26.6754 9.12V9.20333C26.6598 10.7374 26.0472 12.2032 24.9708 13.2823C23.8943 14.3615 22.441 14.9667 20.9265 14.9667C20.808 14.9667 20.6928 14.9667 20.5744 14.9667C20.7257 14.6689 20.8683 14.36 21.0022 14.04C22.2579 14.02 23.456 13.5031 24.3403 12.5999C25.2246 11.6966 25.7249 10.4787 25.7342 9.20667V4.28667H22.1144V3.33333H26.6754V9.12Z" fill="#2B3454"/>
<path d="M14.8517 18.28C13.2294 18.28 11.6762 17.28 10.4783 15.46C9.20482 13.5233 8.50389 10.9333 8.50389 8.16333V0.946667H21.1996V8.16667C21.1996 10.9367 20.4987 13.5267 19.2251 15.4633C18.0273 17.28 16.4741 18.28 14.8517 18.28Z" fill="#2B3454"/>
<path d="M17.7608 26.25H11.9394V25.1767H17.7608V26.25Z" fill="#2B3454"/>
<path d="M15.6415 24.25H14.0587V19.1533C14.5827 19.2417 15.1175 19.2417 15.6415 19.1533V24.25Z" fill="#2B3454"/>
</g>
<defs>
<clipPath id="clip0_13_83">
<rect width="30" height="30" fill="white"/>
</clipPath>
</defs>
</svg>
