<svg width="30" height="30" viewBox="0 0 30 30" fill="none" xmlns="http://www.w3.org/2000/svg">
<g clip-path="url(#clip0_13_71)">
<path d="M26.8249 4.84851H17.1278C16.8867 4.84851 16.6555 4.94429 16.485 5.11478C16.3145 5.28527 16.2188 5.5165 16.2188 5.75761C16.2188 5.99871 16.3145 6.22995 16.485 6.40043C16.6555 6.57092 16.8867 6.6667 17.1278 6.6667H17.7338V25.7576C17.7338 26.8827 18.1807 27.9618 18.9763 28.7574C19.772 29.553 20.851 30 21.9762 30C23.1014 30 24.1805 29.553 24.9761 28.7574C25.7717 27.9618 26.2187 26.8827 26.2187 25.7576V6.6667H26.8249C28.0198 6.6465 28.0195 4.86856 26.8249 4.84851ZM24.4006 25.7577C24.2987 28.9618 19.6533 28.9606 19.5521 25.7576V20.897C21.7754 21.0955 22.1771 19.5095 24.4006 19.7091V25.7577Z" fill="#2B3454"/>
<path d="M12.8854 0H3.18839C2.94729 0 2.71605 0.0957794 2.54557 0.266268C2.37508 0.436756 2.2793 0.667988 2.2793 0.909096C2.2793 1.1502 2.37508 1.38143 2.54557 1.55192C2.71605 1.72241 2.94729 1.81819 3.18839 1.81819H3.79431V25.7576C3.79431 26.8827 4.24128 27.9618 5.03689 28.7574C5.83251 29.553 6.91159 30 8.03676 30C9.16192 30 10.241 29.553 11.0366 28.7574C11.8322 27.9618 12.2792 26.8827 12.2792 25.7576V1.81819H12.8854C14.0804 1.79799 14.0801 0.0200451 12.8854 0ZM10.4612 25.7577C10.3595 28.9612 5.714 28.9611 5.61265 25.7576V14.2303C7.83597 14.4288 8.23769 12.8428 10.4612 13.0424V25.7577Z" fill="#2B3454"/>
</g>
<defs>
<clipPath id="clip0_13_71">
<rect width="30" height="30" fill="white"/>
</clipPath>
</defs>
</svg>
