<?xml version="1.0" standalone="no"?>
<!DOCTYPE svg PUBLIC "-//W3C//DTD SVG 20010904//EN"
 "http://www.w3.org/TR/2001/REC-SVG-20010904/DTD/svg10.dtd">
<svg version="1.0" xmlns="http://www.w3.org/2000/svg"
 width="1600.000000pt" height="1600.000000pt" viewBox="0 0 1600.000000 1600.000000"
 preserveAspectRatio="xMidYMid meet">
<metadata>
Created by potrace 1.14, written by Peter Selinger 2001-2017
</metadata>
<g transform="translate(0.000000,1600.000000) scale(0.100000,-0.100000)"
fill="#000000" stroke="none">
<path d="M7518 12155 c-2 -2 -73 -6 -158 -9 -85 -3 -155 -5 -155 -6 0 -1 -34
-3 -75 -5 -113 -5 -272 -15 -300 -20 -14 -2 -65 -7 -115 -10 -49 -4 -106 -8
-125 -10 -19 -2 -56 -4 -82 -6 -27 -1 -48 -6 -48 -10 0 -5 -7 -6 -15 -3 -8 3
-54 1 -102 -5 -48 -7 -104 -13 -123 -15 -94 -10 -163 -18 -178 -21 -44 -8
-100 -16 -132 -19 -53 -6 -439 -66 -506 -80 -12 -2 -37 -7 -55 -10 -90 -15
-307 -58 -361 -72 -13 -3 -32 -7 -43 -8 -67 -12 -516 -120 -580 -140 -5 -1
-23 -6 -40 -10 -16 -5 -86 -24 -155 -43 -69 -20 -129 -36 -135 -38 -5 -1 -17
-4 -25 -8 -8 -3 -40 -13 -70 -22 -215 -64 -716 -239 -735 -256 -5 -5 -16 -9
-25 -9 -8 -1 -33 -9 -55 -20 -22 -11 -48 -19 -57 -20 -10 0 -18 -4 -18 -10 0
-5 -7 -10 -15 -10 -8 0 -23 -4 -33 -9 -26 -14 -89 -41 -95 -41 -3 0 -50 -21
-104 -46 -90 -43 -140 -65 -153 -69 -21 -6 -321 -159 -326 -166 -3 -5 -14 -9
-24 -9 -10 0 -20 -3 -22 -7 -1 -5 -16 -15 -33 -24 -91 -47 -141 -75 -153 -86
-7 -7 -18 -13 -23 -13 -5 0 -39 -18 -75 -40 -36 -22 -70 -40 -75 -40 -5 0 -9
-4 -9 -8 0 -5 -18 -17 -40 -27 -22 -10 -40 -22 -40 -27 0 -4 -5 -8 -10 -8 -6
0 -32 -15 -58 -32 -26 -18 -55 -37 -64 -43 -47 -30 -131 -87 -141 -96 -15 -12
-147 -109 -177 -129 -12 -8 -28 -21 -35 -27 -7 -7 -48 -41 -92 -75 -43 -34
-83 -67 -89 -72 -6 -6 -42 -38 -79 -71 -145 -127 -351 -341 -460 -478 -16 -21
-40 -50 -53 -65 -12 -15 -39 -52 -59 -82 -21 -30 -40 -57 -44 -60 -8 -7 -69
-102 -122 -191 -52 -87 -153 -295 -186 -384 -13 -33 -27 -69 -32 -80 -21 -50
-82 -282 -95 -359 -3 -21 -7 -48 -9 -59 -27 -136 -27 -517 0 -662 3 -16 8 -46
11 -65 11 -66 14 -78 39 -176 25 -95 61 -203 91 -271 8 -17 14 -34 14 -38 0
-3 13 -33 29 -66 17 -32 27 -59 24 -59 -3 0 0 -8 8 -17 8 -10 26 -40 39 -68
53 -112 275 -452 302 -463 4 -2 8 -10 8 -18 0 -8 4 -14 8 -14 4 0 22 -19 40
-42 99 -129 344 -377 512 -518 36 -30 67 -57 70 -60 25 -27 302 -238 348 -265
9 -5 19 -12 22 -15 3 -3 25 -19 50 -35 25 -16 47 -32 50 -35 5 -6 232 -148
265 -166 11 -6 63 -36 115 -66 221 -128 652 -345 673 -340 4 1 7 -2 7 -8 0 -6
3 -9 8 -8 4 1 23 -5 42 -14 29 -13 203 -86 315 -133 17 -7 84 -33 150 -58 66
-24 129 -48 140 -53 11 -4 22 -8 25 -9 3 -1 12 -4 20 -8 58 -23 420 -143 455
-151 6 -1 57 -17 115 -34 112 -34 133 -40 250 -73 102 -28 86 -23 265 -69 88
-22 190 -47 228 -55 118 -26 211 -47 232 -51 11 -2 31 -6 45 -9 14 -4 36 -8
50 -11 192 -37 290 -56 315 -60 17 -3 39 -6 50 -8 11 -2 52 -9 90 -15 39 -7
84 -14 100 -17 17 -3 39 -7 50 -8 73 -10 133 -19 150 -22 11 -3 40 -7 65 -10
25 -2 56 -7 70 -10 14 -2 52 -7 85 -10 33 -2 67 -6 75 -9 8 -2 35 -7 60 -9
105 -13 148 -17 190 -21 25 -2 69 -6 98 -9 109 -12 155 -16 225 -22 39 -3 88
-7 107 -9 19 -1 85 -6 145 -9 61 -4 135 -9 165 -11 335 -25 1424 -26 1745 0
114 9 260 18 312 19 29 0 53 3 53 6 0 3 17 5 38 6 36 0 155 10 237 19 86 9
152 17 200 21 28 3 64 7 80 9 17 2 53 7 80 10 28 2 59 7 70 9 22 5 132 19 153
19 6 0 12 3 12 6 0 3 14 6 31 5 18 0 53 3 78 8 25 5 62 10 81 12 19 3 35 5 35
6 0 1 11 3 25 5 14 1 54 8 90 14 87 16 109 20 147 25 17 2 66 11 110 20 43 9
89 18 103 20 14 3 25 5 25 6 0 1 11 3 25 5 14 2 59 11 100 20 71 16 89 19 143
29 12 2 42 9 67 15 25 7 56 14 70 16 14 3 45 10 70 16 25 5 50 10 55 10 6 0
16 5 23 11 6 6 12 8 12 5 0 -4 58 10 203 48 9 3 26 7 37 9 32 8 244 67 260 73
8 3 20 7 26 8 51 11 202 59 212 67 6 6 12 8 12 4 0 -3 12 -1 28 5 15 6 34 12
42 14 13 3 235 79 340 116 30 10 44 15 70 24 3 1 19 8 35 15 17 7 33 13 38 12
16 -4 19 -8 -93 118 -128 144 -148 161 -173 148 -47 -24 -57 -28 -72 -28 -8 0
-23 -4 -33 -10 -9 -5 -75 -28 -147 -50 -71 -23 -137 -44 -145 -47 -8 -3 -19
-7 -25 -8 -5 -2 -66 -20 -135 -40 -69 -20 -132 -38 -140 -40 -8 -2 -58 -16
-110 -31 -52 -14 -103 -28 -113 -29 -9 -2 -21 -6 -25 -9 -5 -3 -24 -8 -43 -11
-19 -3 -42 -8 -51 -11 -9 -3 -25 -7 -35 -9 -10 -3 -38 -9 -63 -16 -25 -6 -54
-13 -65 -15 -95 -19 -210 -45 -225 -51 -8 -4 -19 -5 -24 -4 -4 1 -22 -3 -40
-8 -17 -5 -47 -12 -66 -15 -19 -3 -46 -8 -60 -11 -14 -3 -47 -10 -75 -15 -27
-5 -59 -11 -70 -13 -11 -3 -40 -8 -65 -12 -25 -4 -54 -9 -65 -12 -11 -2 -29
-5 -40 -7 -30 -5 -107 -18 -130 -22 -11 -3 -40 -7 -65 -10 -25 -3 -52 -7 -60
-9 -8 -2 -35 -7 -60 -10 -25 -3 -56 -8 -70 -10 -14 -2 -45 -6 -70 -10 -25 -3
-56 -8 -70 -10 -14 -3 -51 -7 -83 -10 -32 -4 -67 -8 -77 -10 -10 -2 -50 -6
-87 -10 -37 -3 -80 -8 -94 -11 -15 -3 -46 -7 -70 -9 -78 -6 -183 -16 -219 -20
-19 -2 -73 -7 -120 -10 -47 -2 -107 -7 -135 -9 -112 -11 -363 -24 -590 -32
-179 -6 -830 -7 -902 -2 -25 2 -43 -1 -43 -7 0 -7 -3 -7 -8 0 -4 6 -43 11 -87
11 -89 2 -303 12 -410 19 -173 12 -322 23 -395 30 -19 2 -66 6 -105 9 -38 3
-88 8 -110 11 -22 2 -62 7 -90 10 -95 10 -217 24 -255 30 -14 2 -45 7 -70 10
-25 3 -61 8 -80 10 -19 3 -55 7 -80 10 -25 3 -67 10 -95 15 -27 6 -70 13 -95
16 -25 3 -55 7 -67 9 -20 3 -100 17 -113 20 -3 1 -25 5 -50 9 -25 5 -54 10
-65 13 -11 2 -31 6 -45 8 -14 2 -36 7 -50 10 -14 3 -41 7 -60 10 -38 5 -72 11
-98 19 -9 3 -33 8 -52 11 -19 3 -51 10 -70 15 -19 5 -48 11 -65 14 -52 9 -88
17 -96 21 -4 3 -24 7 -45 11 -20 3 -48 10 -61 15 -13 5 -27 8 -31 8 -4 -1 -9
0 -12 1 -3 1 -12 3 -20 5 -8 2 -35 8 -60 14 -25 7 -52 13 -60 15 -8 2 -42 11
-75 20 -33 9 -71 19 -85 22 -14 3 -86 23 -160 45 -74 22 -144 42 -156 44 -12
3 -41 12 -65 21 -24 8 -53 17 -64 20 -11 2 -60 17 -110 34 -49 17 -99 33 -110
35 -11 3 -29 9 -40 14 -11 5 -54 21 -95 35 -112 38 -194 67 -205 74 -5 4 -14
7 -20 8 -10 2 -191 73 -250 99 -337 145 -556 249 -755 359 -45 25 -86 46 -91
46 -5 0 -9 4 -9 8 0 4 -12 13 -27 19 -37 15 -87 46 -91 56 -2 4 -8 7 -14 7 -6
0 -30 14 -55 30 -24 17 -46 30 -49 30 -4 0 -268 175 -289 192 -5 4 -53 40
-105 80 -107 80 -173 131 -180 138 -3 3 -36 32 -75 65 -85 72 -345 332 -400
399 -22 27 -45 54 -50 60 -28 30 -145 187 -175 236 -19 30 -38 57 -42 58 -5 2
-8 8 -8 14 0 5 -9 22 -19 36 -35 49 -131 242 -170 340 -33 83 -73 196 -76 212
-4 21 -28 118 -32 130 -4 8 -6 18 -5 22 1 3 -5 41 -13 84 -32 165 -34 427 -5
594 5 30 12 71 15 90 17 99 67 267 118 390 60 147 232 458 258 468 5 2 9 9 9
16 0 7 8 21 17 32 10 10 38 46 63 79 25 33 50 65 55 71 6 6 28 33 50 60 32 39
171 188 231 248 37 37 206 185 262 232 13 10 38 31 55 47 18 15 50 39 72 55
22 15 51 37 65 50 14 12 28 22 32 22 3 0 13 6 20 13 7 6 40 30 73 52 33 22 68
48 79 57 11 10 28 20 38 24 10 3 18 10 18 15 0 5 4 9 10 9 5 0 40 20 77 44 94
61 292 176 303 176 4 0 10 3 12 8 5 12 376 202 395 202 7 0 13 5 13 10 0 6 4
10 9 10 5 0 38 13 73 28 34 16 68 30 73 32 6 2 30 13 55 26 25 12 74 34 110
48 36 15 74 31 85 36 17 8 70 30 85 35 9 3 44 18 80 33 19 8 41 14 48 13 6 -1
12 4 12 10 0 7 3 10 6 7 3 -4 36 6 74 22 38 16 71 26 74 22 3 -3 6 0 6 7 0 7
5 9 10 6 6 -4 16 -3 23 3 20 15 605 207 662 217 6 1 12 3 15 4 3 2 12 4 20 6
8 2 42 11 75 20 134 37 249 66 375 95 52 12 113 27 135 33 22 6 47 12 55 13
19 4 83 17 90 19 11 3 117 25 140 29 14 2 36 7 50 10 27 6 67 14 115 22 17 3
40 7 53 10 12 2 34 6 50 9 47 10 146 27 177 32 17 2 66 11 110 19 44 8 98 16
120 19 22 2 51 6 65 9 47 8 135 18 180 22 25 2 45 4 45 5 0 1 9 3 20 4 58 7
130 17 144 20 9 1 50 6 91 10 41 4 89 9 105 11 65 7 153 15 205 19 30 2 81 6
112 10 55 6 92 8 288 20 52 3 124 8 160 10 363 23 1432 24 1469 1 5 -4 12 -2
16 4 4 6 11 8 16 4 6 -3 42 -7 82 -9 171 -9 362 -22 447 -30 30 -3 84 -8 120
-11 101 -7 254 -22 300 -29 14 -2 48 -7 75 -10 28 -3 66 -8 85 -10 19 -3 58
-8 85 -10 49 -5 104 -12 155 -20 14 -2 43 -7 65 -10 22 -3 54 -7 71 -9 34 -5
324 -53 364 -60 66 -13 88 -17 120 -22 47 -8 65 -12 65 -14 0 -1 9 -3 20 -4
11 -1 38 -6 60 -11 22 -4 47 -9 55 -11 8 -2 31 -6 50 -10 19 -4 42 -9 50 -10
84 -16 557 -130 660 -159 8 -2 40 -11 70 -20 30 -9 63 -18 73 -20 10 -2 64
-18 120 -35 56 -18 116 -36 132 -41 208 -64 617 -209 760 -270 17 -7 32 -13
35 -14 103 -34 562 -249 735 -343 39 -21 106 -58 150 -82 44 -24 82 -46 85
-50 3 -3 21 -14 40 -23 19 -10 80 -47 135 -82 55 -36 107 -68 115 -72 8 -4 17
-9 20 -13 3 -4 34 -26 70 -50 83 -56 336 -244 350 -261 3 -3 39 -35 80 -70 41
-35 82 -71 91 -79 8 -8 40 -38 70 -66 68 -65 191 -194 249 -263 25 -30 50 -59
55 -65 21 -23 131 -172 159 -216 16 -25 33 -48 38 -51 5 -3 10 -10 10 -15 1
-5 11 -25 23 -44 87 -138 213 -417 240 -530 2 -8 11 -42 20 -75 9 -33 19 -73
21 -90 3 -16 9 -46 14 -65 23 -92 36 -326 26 -480 -4 -66 -17 -173 -21 -180
-2 -3 -6 -26 -10 -50 -6 -41 -30 -147 -40 -178 -3 -7 -5 -16 -6 -20 -1 -7 -46
-135 -56 -162 -3 -8 -7 -20 -8 -27 -11 -50 -234 -458 -264 -483 -3 -3 -20 -25
-36 -50 -16 -25 -32 -47 -35 -50 -3 -3 -17 -21 -32 -40 -15 -19 -37 -47 -50
-62 -13 -14 -39 -45 -58 -69 -38 -47 -49 -59 -129 -142 -47 -48 -52 -58 -40
-70 8 -8 42 -46 75 -83 34 -38 80 -89 102 -114 l40 -44 79 80 c67 69 145 156
229 256 27 32 134 175 157 208 9 14 30 44 47 68 16 23 30 47 30 52 0 6 5 10
10 10 6 0 10 4 10 10 0 5 15 33 33 62 19 29 63 114 99 188 59 122 74 153 84
185 2 6 23 67 47 138 24 70 43 127 41 127 -1 0 2 15 7 33 43 144 64 325 64
547 0 145 -4 209 -20 337 -10 73 -57 262 -90 356 -19 56 -37 109 -39 117 -2 8
-12 33 -22 55 -10 22 -18 42 -18 45 -1 3 -26 57 -57 120 -57 115 -142 260
-208 355 -19 28 -44 64 -55 80 -12 17 -23 32 -26 35 -3 3 -21 25 -40 50 -39
50 -127 157 -174 209 -56 63 -300 303 -335 330 -19 14 -51 42 -70 61 -20 19
-60 53 -89 75 -28 21 -52 43 -52 47 0 4 -5 8 -10 8 -11 0 -143 100 -148 112
-2 5 -8 8 -13 8 -5 0 -35 20 -66 44 -57 43 -94 67 -202 137 -147 94 -253 159
-316 194 -39 21 -79 44 -90 51 -65 42 -582 302 -615 309 -3 1 -27 12 -55 24
-62 29 -93 42 -175 75 -36 15 -74 31 -85 36 -11 5 -67 27 -125 49 -58 22 -118
45 -135 52 -16 7 -34 13 -40 15 -10 3 -213 75 -245 87 -42 15 -144 49 -154 51
-17 3 -188 57 -211 66 -11 5 -87 27 -170 49 -82 23 -164 46 -182 52 -18 5 -40
12 -50 13 -10 2 -38 10 -63 16 -25 7 -52 14 -60 15 -8 1 -35 8 -60 14 -25 7
-52 14 -61 16 -8 2 -44 10 -80 19 -35 8 -76 18 -91 21 -73 14 -84 16 -97 20
-12 5 -120 28 -186 41 -11 2 -33 7 -50 11 -16 4 -34 7 -40 8 -11 1 -86 14
-120 22 -11 2 -33 6 -50 8 -16 3 -41 7 -55 10 -14 3 -41 8 -60 11 -19 3 -45 7
-57 10 -13 2 -33 6 -45 8 -31 6 -167 27 -198 31 -14 2 -38 5 -55 8 -16 3 -55
9 -85 12 -30 3 -62 8 -70 10 -15 4 -64 10 -165 21 -27 3 -61 7 -75 9 -14 3
-54 7 -90 11 -36 3 -74 8 -85 10 -11 2 -54 6 -95 9 -41 3 -92 8 -113 10 -20 3
-68 7 -105 10 -37 3 -96 8 -132 11 -72 7 -117 10 -295 19 -66 4 -156 9 -200
11 -95 6 -1152 13 -1157 9z"/>
<path d="M3517 9494 c-1 -1 -27 -4 -57 -7 -63 -7 -191 -39 -253 -64 -45 -18
-169 -82 -177 -92 -3 -3 -21 -18 -40 -32 -121 -90 -242 -266 -276 -399 -30
-121 -36 -164 -36 -261 -1 -62 9 -173 17 -199 1 -3 5 -23 10 -45 26 -124 113
-273 225 -385 93 -92 197 -160 409 -268 244 -124 323 -175 406 -260 119 -122
62 -303 -103 -328 -57 -9 -161 1 -232 21 -30 8 -62 17 -70 19 -63 17 -261 141
-341 216 -30 27 -57 50 -60 50 -8 0 -37 -33 -139 -159 -47 -58 -93 -114 -103
-125 -29 -34 -41 -48 -83 -101 -21 -27 -46 -57 -56 -65 -9 -9 -18 -23 -20 -32
-7 -35 171 -191 307 -268 91 -52 148 -80 161 -80 8 0 14 -5 14 -10 0 -6 3 -9
8 -8 4 1 45 -10 91 -25 76 -25 144 -43 196 -52 145 -26 433 -22 488 7 10 5 21
7 24 5 8 -9 171 51 240 88 38 20 91 54 118 74 60 46 155 137 155 150 0 5 3 11
8 13 17 8 67 85 102 161 34 72 61 155 77 237 8 42 9 250 1 250 -4 0 -5 6 -2
14 7 17 -21 123 -53 204 -23 58 -79 152 -122 205 -34 42 -128 133 -166 162
-22 16 -42 33 -45 36 -17 21 -199 128 -340 199 -307 154 -386 221 -395 331 -4
58 4 85 39 122 122 133 422 67 637 -140 49 -48 45 -48 88 3 28 34 168 203 201
244 46 57 104 127 141 168 l29 33 -57 54 c-103 101 -318 230 -448 271 -67 21
-153 44 -183 49 -20 3 -50 8 -67 11 -28 6 -263 13 -268 8z"/>
<path d="M6128 9494 c-2 -1 -28 -5 -58 -7 -55 -6 -88 -11 -145 -24 -16 -4 -34
-8 -40 -9 -5 0 -17 -3 -25 -6 -8 -3 -44 -16 -80 -28 -79 -27 -212 -90 -222
-104 -5 -7 -8 -7 -8 -1 0 7 -3 7 -8 0 -4 -5 -41 -32 -82 -60 -72 -48 -244
-211 -305 -289 -126 -162 -243 -416 -281 -611 -2 -11 -8 -42 -13 -70 -22 -110
-37 -393 -23 -419 3 -5 6 -32 8 -60 1 -28 8 -76 14 -106 6 -30 13 -64 14 -75
10 -72 85 -281 134 -375 87 -164 192 -298 328 -418 55 -49 205 -152 222 -152
6 0 12 -4 14 -8 3 -7 142 -72 163 -76 6 -1 39 -12 75 -24 36 -12 76 -24 90
-26 14 -3 25 -5 25 -6 0 -1 11 -3 25 -4 14 -2 54 -7 90 -11 289 -37 610 32
848 182 29 18 54 33 57 33 12 0 188 153 235 203 60 67 130 155 130 165 0 6 4
12 8 14 8 3 86 127 87 138 1 3 17 38 38 78 20 40 36 75 37 77 1 5 1 6 25 80
21 62 51 186 59 240 3 22 10 69 15 105 9 68 8 343 -3 395 -3 17 -8 44 -10 60
-2 17 -7 44 -11 60 -9 43 -26 118 -30 130 -1 6 -4 15 -5 20 -33 121 -184 425
-211 425 -5 0 -9 5 -9 11 0 17 -105 141 -172 202 -70 63 -168 139 -208 159
-14 7 -27 16 -30 19 -10 12 -177 87 -240 107 -69 23 -191 51 -250 58 -42 5
-269 12 -272 8z m231 -740 c82 -19 202 -77 247 -119 19 -18 34 -30 34 -28 0
10 102 -116 121 -148 64 -114 105 -236 114 -348 3 -35 8 -67 11 -72 3 -5 2 -9
-3 -9 -4 0 -8 -35 -9 -78 -1 -105 -11 -161 -52 -272 -87 -241 -309 -419 -542
-434 -14 -1 -31 -5 -37 -9 -6 -4 -14 -3 -18 3 -4 7 -12 7 -24 0 -10 -5 -20 -7
-22 -5 -3 2 -27 7 -54 10 -72 10 -208 56 -225 76 -3 3 -19 14 -37 23 -52 26
-157 138 -203 214 -82 138 -121 302 -114 481 4 121 9 164 24 190 6 12 9 21 6
21 -6 0 28 98 37 107 4 3 7 15 7 25 0 10 5 18 10 18 6 0 10 9 10 19 0 11 3 21
8 23 4 2 19 21 33 43 41 62 85 110 143 155 57 43 159 97 200 104 14 2 32 8 40
13 27 15 225 13 295 -3z"/>
<path d="M8002 9450 c-5 -4 -6 -472 -2 -960 0 -8 0 -152 0 -320 0 -168 0 -312
0 -320 0 -8 -1 -300 -3 -648 -1 -414 1 -636 8 -641 6 -4 161 -7 345 -7 l335 1
0 853 c0 468 2 852 5 852 3 0 24 -30 45 -66 22 -36 50 -82 63 -102 12 -21 25
-44 29 -52 4 -8 9 -17 13 -20 3 -3 22 -32 40 -65 19 -33 37 -61 42 -63 4 -2 8
-7 8 -12 0 -5 23 -45 50 -89 28 -44 50 -83 50 -85 0 -3 14 -25 30 -49 17 -25
30 -48 30 -52 0 -3 10 -21 23 -38 12 -18 27 -41 34 -52 6 -11 40 -67 75 -124
35 -57 72 -118 83 -137 11 -18 49 -81 85 -139 36 -59 74 -123 85 -143 11 -21
22 -39 25 -42 3 -3 11 -16 19 -30 8 -14 59 -97 112 -185 l98 -160 343 0 343 0
1 1447 c0 1304 -1 1447 -15 1450 -14 3 -639 2 -666 -1 -7 -1 -9 -280 -8 -821
1 -499 -2 -820 -8 -820 -5 0 -9 5 -9 11 0 6 -13 31 -30 56 -16 24 -30 48 -30
54 0 5 -4 9 -9 9 -5 0 -14 12 -20 28 -6 15 -19 39 -29 54 -36 57 -138 224
-151 251 -7 15 -17 27 -22 27 -5 0 -9 4 -9 10 0 8 -128 227 -192 328 -10 15
-25 41 -34 57 -9 17 -23 38 -32 48 -8 9 -11 17 -6 17 5 0 4 4 -2 8 -13 9 -74
109 -74 122 0 6 -4 10 -10 10 -5 0 -10 4 -10 8 0 5 -31 60 -70 123 -38 63 -80
131 -92 153 -13 21 -28 46 -33 55 -6 9 -30 49 -54 89 -24 40 -48 75 -52 78 -5
3 -7 9 -4 14 3 4 -3 14 -12 21 -13 11 -87 14 -370 14 -195 0 -358 -2 -361 -5z"/>
<path d="M11700 9445 c-4 -5 -25 -59 -45 -120 -21 -60 -42 -118 -47 -128 -5
-10 -11 -26 -13 -35 -2 -9 -20 -62 -40 -117 -20 -55 -38 -107 -40 -115 -2 -8
-4 -16 -5 -17 -2 -2 -3 -6 -5 -10 -1 -5 -7 -21 -13 -36 -7 -16 -12 -34 -12
-41 0 -7 -3 -16 -7 -20 -4 -3 -8 -12 -9 -19 -1 -7 -52 -151 -114 -322 -61
-170 -113 -317 -115 -325 -2 -8 -29 -85 -59 -170 -30 -85 -79 -225 -109 -310
-30 -85 -60 -167 -66 -182 -6 -16 -8 -28 -5 -28 4 0 0 -10 -8 -22 -8 -13 -25
-57 -38 -98 -13 -41 -28 -81 -34 -89 -6 -8 -10 -17 -10 -20 2 -7 2 -8 -32
-106 -15 -44 -31 -86 -37 -92 -5 -7 -7 -13 -3 -13 4 0 0 -13 -9 -30 -9 -16
-14 -30 -11 -30 2 0 -7 -30 -21 -67 -34 -93 -113 -319 -113 -324 0 -2 166 -4
370 -4 l370 0 9 25 c5 14 21 66 36 115 15 50 34 113 43 140 9 28 17 55 18 60
1 6 9 33 19 60 9 28 19 58 21 69 2 10 6 21 9 24 4 4 836 7 907 3 14 -1 27 -22
34 -56 2 -14 64 -217 71 -235 3 -8 7 -19 8 -25 2 -5 13 -44 26 -85 13 -41 22
-78 21 -82 -1 -5 1 -9 5 -9 39 -6 776 -2 780 4 3 5 0 14 -6 20 -6 6 -11 18
-11 25 0 14 -52 164 -72 207 -5 12 -10 27 -12 35 -2 8 -6 22 -9 30 -3 8 -13
35 -21 60 -9 25 -29 83 -47 130 -17 47 -33 94 -36 105 -2 11 -9 31 -15 45 -24
57 -41 104 -43 120 0 3 -6 19 -12 35 -6 17 -30 84 -53 150 -23 66 -46 129 -50
140 -5 11 -16 40 -24 65 -8 25 -38 110 -66 190 -28 80 -58 165 -66 190 -8 25
-19 54 -23 65 -12 29 -45 118 -47 130 -1 6 -21 62 -44 125 -23 63 -43 120 -44
125 -2 6 -7 21 -13 35 -5 14 -27 75 -47 135 -21 61 -42 119 -46 130 -11 26
-60 166 -65 185 -2 8 -11 33 -19 55 -44 119 -98 271 -100 280 -3 20 -29 75
-35 76 -3 1 -160 2 -349 3 -220 1 -347 -2 -352 -9z m366 -994 c9 -43 9 -46 16
-56 3 -5 13 -35 21 -65 17 -62 95 -317 104 -340 3 -8 7 -21 9 -29 1 -8 10 -37
19 -65 10 -28 18 -55 19 -61 2 -5 12 -41 24 -79 12 -37 22 -71 22 -75 0 -4
-119 -7 -265 -7 -194 0 -265 3 -265 11 0 7 9 38 20 71 11 32 21 60 21 61 0 2
1 8 4 15 2 7 18 60 35 118 18 58 40 130 50 160 22 66 82 261 85 275 1 5 5 17
8 25 3 8 14 42 23 74 l16 59 14 -33 c8 -18 17 -44 20 -59z"/>
<path d="M12879 6018 c-1 -18 0 -37 1 -43 2 -9 1 -148 -1 -185 -1 -15 0 -167
2 -280 1 -52 0 -183 -2 -205 0 -5 0 -57 0 -115 0 -58 0 -112 0 -120 0 -8 0
-52 2 -97 l3 -83 133 0 c99 0 133 3 134 13 1 16 1 1107 0 1130 -1 15 -14 17
-136 17 l-135 0 -1 -32z"/>
<path d="M14167 6043 c-2 -5 -3 -264 -3 -578 l1 -570 113 -3 c61 -1 112 1 113
5 0 4 2 16 5 26 2 9 6 25 8 35 3 9 5 19 5 21 1 2 15 -11 32 -29 64 -67 175
-93 275 -64 249 71 368 412 234 672 -81 159 -231 235 -388 198 -35 -8 -112
-55 -112 -68 0 -6 -3 -8 -7 -4 -5 4 -9 85 -10 179 0 95 -1 175 -2 180 -1 4
-59 7 -130 7 -72 0 -131 -3 -134 -7z m499 -577 c84 -50 95 -211 19 -279 -61
-55 -158 -50 -214 9 -26 28 -47 94 -44 136 4 70 57 142 111 154 15 3 31 7 37
8 17 4 59 -8 91 -28z"/>
<path d="M13520 5748 c-71 -19 -164 -64 -182 -86 -12 -14 7 -58 73 -168 l19
-31 48 24 c58 29 157 38 195 18 44 -23 66 -49 75 -92 10 -44 6 -58 -12 -44
-30 22 -196 45 -221 29 -5 -3 -26 -9 -45 -13 -106 -23 -190 -137 -191 -260 -1
-148 123 -254 297 -253 65 1 163 31 195 62 17 15 23 16 30 5 5 -8 9 -22 9 -32
0 -16 10 -17 108 -15 l107 3 -1 265 c-1 302 -5 338 -42 420 -39 83 -112 145
-202 171 -68 19 -187 18 -260 -3z m201 -529 c22 -11 48 -67 42 -90 -6 -23 -51
-69 -69 -70 -50 -5 -62 -4 -84 5 -54 23 -76 78 -49 127 22 42 107 57 160 28z"/>
</g>
</svg>
