<svg width="200" height="105" viewBox="0 0 200 105" fill="none" xmlns="http://www.w3.org/2000/svg">
<g clip-path="url(#clip0_13_43)">
<path d="M47.6876 48.1246C51.9671 50.208 56.7136 53.4885 56.7136 59.6338C56.7136 65.987 51.7813 70.9876 44.4775 70.9876C36.1025 70.9876 31.5903 65.2602 31.5903 65.2602L36.7084 59.01C36.7084 59.01 40.3837 63.0213 44.8508 63.0213C46.4792 63.0213 47.6424 62.0845 47.6424 60.7299C47.6424 59.0624 46.3403 57.7603 40.8508 55.1055C36.6633 53.0746 33.4532 49.8465 33.4532 44.3251C33.4532 38.0224 38.1528 33.4921 45.224 33.4921C52.481 33.4921 56.7154 38.4383 56.7154 38.4383L51.5973 44.6885C51.5973 44.6885 48.9463 41.4604 45.316 41.4604C43.5018 41.4604 42.5244 42.4496 42.5244 43.5438C42.5226 45.1549 43.4532 46.0936 47.6876 48.1246Z" fill="white"/>
<path d="M77.785 33.49C87.601 33.49 94.8597 41.5613 94.8597 52.0832C94.8597 62.6033 87.3232 70.9875 77.5073 70.9875C67.6913 70.9875 60.4326 62.9162 60.4326 52.3942C60.4326 41.8741 67.9691 33.49 77.785 33.49ZM77.6462 61.8745C82.5316 61.8745 86.0212 57.7077 86.0212 52.2387C86.0212 46.7698 82.5316 42.603 77.6462 42.603C72.7607 42.603 69.2729 46.7698 69.2729 52.2387C69.2712 57.7077 72.7607 61.8745 77.6462 61.8745Z" fill="white"/>
<path d="M108.58 70.4688H99.9722V34.0131H109.043L121.604 54.8976V34.0131H130.21V70.4688H121.604L108.578 48.8554V70.4688H108.58Z" fill="white"/>
<path d="M158.124 70.4688L156.216 64.2185H144.677L142.769 70.4688H133.464L146.257 34.0131H155.098L167.891 70.4688H158.124ZM147.051 56.4077H153.797L150.448 45.4193L147.051 56.4077Z" fill="white"/>
<path d="M99.9983 100.144C47.3125 100.144 4.60417 78.6953 4.60417 52.2387C4.60417 25.7822 47.3142 4.33395 99.9983 4.33395C152.682 4.33395 195.392 25.7822 195.392 52.2387C195.392 59.9368 191.774 67.2113 185.349 73.6578L188.214 76.8645C195.733 69.5279 200 61.1437 200 52.2407C200 23.3897 155.227 0 100 0C44.7726 0 0 23.3897 0 52.2407C0 81.0935 44.7726 104.481 100 104.481C122.012 104.481 142.365 100.765 158.882 94.4705L155.852 91.0791C140.151 96.7813 120.858 100.144 99.9983 100.144Z" fill="white"/>
<path d="M164.399 76.8276V91.429H161.009V76.8276H164.399Z" fill="white"/>
<path d="M169.766 84.963C170.604 84.963 171.349 85.1515 171.946 85.5052V85.2759C171.946 84.1914 171.163 83.5035 170.084 83.5035C168.78 83.5035 167.847 84.2342 167.847 84.2342L166.544 81.836C166.544 81.836 168.091 80.3764 170.792 80.3764C173.549 80.3764 175.301 82.2324 175.301 85.3206V91.4328H172.691L172.448 90.6185C171.759 91.2871 170.771 91.6408 169.653 91.6408C167.361 91.6408 165.983 90.3056 165.983 88.366C165.983 86.4226 167.474 84.963 169.766 84.963ZM170.679 89.3436C171.479 89.3436 172.038 88.8422 172.038 88.1969C172.038 87.5498 171.479 87.0503 170.679 87.0503C169.877 87.0503 169.337 87.5498 169.337 88.1969C169.337 88.8422 169.877 89.3436 170.679 89.3436Z" fill="white"/>
<path d="M180.423 76.8276V81.5425C181.094 80.8117 181.951 80.3744 182.995 80.3744C185.491 80.3744 187.597 82.7727 187.597 85.9445C187.597 89.1143 185.436 91.6389 182.884 91.6389C181.71 91.6389 180.778 91.118 180.108 90.2201L179.864 91.4309H177.069V76.8295H180.423V76.8276ZM182.286 88.195C183.424 88.195 184.243 87.2155 184.243 86.0047C184.243 84.7939 183.424 83.8144 182.286 83.8144C181.149 83.8144 180.33 84.7939 180.33 86.0047C180.33 87.2155 181.149 88.195 182.286 88.195Z" fill="white"/>
</g>
<defs>
<clipPath id="clip0_13_43">
<rect width="200" height="104.615" fill="white"/>
</clipPath>
</defs>
</svg>
