<svg width="100" height="52" viewBox="0 0 100 52" fill="none" xmlns="http://www.w3.org/2000/svg">
<path d="M23.8435 23.9206C25.9833 24.9562 28.3566 26.5868 28.3566 29.6414C28.3566 32.7993 25.8904 35.2849 22.2385 35.2849C18.051 35.2849 15.7949 32.438 15.7949 32.438L18.354 29.3313C18.354 29.3313 20.1916 31.3251 22.4251 31.3251C23.2394 31.3251 23.821 30.8595 23.821 30.1862C23.821 29.3573 23.1699 28.7101 20.4251 27.3905C18.3314 26.381 16.7263 24.7765 16.7263 22.032C16.7263 18.8992 19.0762 16.6474 22.6118 16.6474C26.2402 16.6474 28.3574 19.1059 28.3574 19.1059L25.7984 22.2127C25.7984 22.2127 24.4729 20.6081 22.6578 20.6081C21.7507 20.6081 21.2619 21.0998 21.2619 21.6437C21.2611 22.4445 21.7263 22.9111 23.8435 23.9206Z" fill="#DF0D00"/>
<path d="M38.892 16.6465C43.8 16.6465 47.4294 20.6584 47.4294 25.8885C47.4294 31.1175 43.6611 35.285 38.7531 35.285C33.8452 35.285 30.2158 31.2731 30.2158 26.043C30.2158 20.8139 33.984 16.6465 38.892 16.6465ZM38.8226 30.7553C41.2653 30.7553 43.0101 28.6841 43.0101 25.9657C43.0101 23.2473 41.2653 21.1762 38.8226 21.1762C36.3799 21.1762 34.636 23.2473 34.636 25.9657C34.6351 28.6841 36.3799 30.7553 38.8226 30.7553Z" fill="#DF0D00"/>
<path d="M54.2897 35.0271H49.9858V16.9065H54.5214L60.8018 27.2874V16.9065H65.1048V35.0271H60.8018L54.2888 24.284V35.0271H54.2897Z" fill="#DF0D00"/>
<path d="M79.0613 35.0271L78.1073 31.9204H72.3382L71.3842 35.0271H66.7314L73.1281 16.9065H77.5483L83.945 35.0271H79.0613ZM73.5248 28.038H76.8981L75.2236 22.5761L73.5248 28.038Z" fill="#DF0D00"/>
<path d="M49.9991 49.7772C23.6562 49.7772 2.30208 39.1162 2.30208 25.9657C2.30208 12.8153 23.6571 2.15423 49.9991 2.15423C76.3411 2.15423 97.6962 12.8153 97.6962 25.9657C97.6962 29.7921 95.8871 33.408 92.6745 36.6123L94.1068 38.2062C97.8663 34.5595 100 30.392 100 25.9667C100 11.6261 77.6137 0 50 0C22.3863 0 0 11.6261 0 25.9667C0 40.3083 22.3863 51.9334 50 51.9334C61.0061 51.9334 71.1823 50.0863 79.441 46.9574L77.9262 45.2717C70.0755 48.106 60.4288 49.7772 49.9991 49.7772Z" fill="#DF0D00"/>
<path d="M82.1997 38.1878V45.4456H80.5044V38.1878H82.1997Z" fill="#DF0D00"/>
<path d="M84.8827 42.2316C85.302 42.2316 85.6744 42.3253 85.973 42.5011V42.3872C85.973 41.8481 85.5815 41.5061 85.0416 41.5061C84.3896 41.5061 83.9235 41.8694 83.9235 41.8694L83.2716 40.6773C83.2716 40.6773 84.045 39.9518 85.3957 39.9518C86.7742 39.9518 87.65 40.8744 87.65 42.4094V45.4475H86.3454L86.2238 45.0427C85.8792 45.3751 85.3853 45.5509 84.8263 45.5509C83.6804 45.5509 82.9912 44.8872 82.9912 43.9231C82.9912 42.9571 83.7369 42.2316 84.8827 42.2316ZM85.3393 44.409C85.7395 44.409 86.019 44.1598 86.019 43.8391C86.019 43.5174 85.7395 43.2691 85.3393 43.2691C84.9382 43.2691 84.6683 43.5174 84.6683 43.8391C84.6683 44.1598 84.9382 44.409 85.3393 44.409Z" fill="#DF0D00"/>
<path d="M90.2117 38.1878V40.5314C90.5468 40.1682 90.9756 39.9508 91.4973 39.9508C92.7456 39.9508 93.7986 41.1429 93.7986 42.7194C93.7986 44.295 92.7178 45.5499 91.4418 45.5499C90.855 45.5499 90.3888 45.291 90.0538 44.8447L89.9322 45.4465H88.5347V38.1888H90.2117V38.1878ZM91.1432 43.8381C91.7118 43.8381 92.1215 43.3512 92.1215 42.7494C92.1215 42.1476 91.7118 41.6607 91.1432 41.6607C90.5746 41.6607 90.1649 42.1476 90.1649 42.7494C90.1649 43.3512 90.5746 43.8381 91.1432 43.8381Z" fill="#DF0D00"/>
</svg>
