<svg width="30" height="30" viewBox="0 0 30 30" fill="none" xmlns="http://www.w3.org/2000/svg">
<path d="M15.2812 10.3125H9.375C8.8125 10.3125 8.4375 9.9375 8.4375 9.375C8.4375 8.15625 7.875 7.125 6.9375 6.375C6.65625 6.1875 6.5625 5.90625 6.5625 5.625C6.5625 3 8.71875 0.9375 11.25 0.9375H22.5C23.0625 0.9375 23.4375 1.3125 23.4375 1.875V5.625C23.4375 6.1875 23.0625 6.5625 22.5 6.5625H20.3438C18.4688 6.5625 16.6875 7.875 16.125 9.65625C16.0313 10.0312 15.6562 10.3125 15.2812 10.3125Z" fill="white"/>
<path d="M22.4999 13.1249C22.3124 13.1249 22.2186 13.1249 22.1249 13.0311L21.8436 12.8436C19.4061 11.6249 17.6249 9.3749 16.9686 6.7499C16.8749 6.28115 17.1561 5.71865 17.6249 5.6249C18.0936 5.53115 18.6561 5.8124 18.7499 6.28115C19.3124 8.4374 20.7186 10.2186 22.6874 11.1561L22.9686 11.3436C23.4374 11.5311 23.6249 12.0936 23.3436 12.5624C23.1561 12.9374 22.8749 13.1249 22.4999 13.1249Z" fill="white"/>
<path d="M19.8749 18.4688L18.3749 17.0625C17.3437 16.125 16.7812 14.7188 16.7812 13.3125C16.7812 11.8125 16.4062 10.3125 15.7499 8.90625C15.6562 8.625 15.3749 8.4375 14.9999 8.4375H9.37491C8.99991 8.4375 8.62491 8.71875 8.53116 9.09375L8.24991 9.9375C5.90616 16.3125 6.09366 23.25 8.53116 29.4375C8.62491 29.8125 8.99991 30 9.37491 30H20.6249C21.0937 30 21.4687 29.625 21.5624 29.1562L22.1249 24.9375C22.4062 22.5938 21.5624 20.25 19.8749 18.4688ZM14.9999 13.3125C14.9999 15.1875 15.7499 17.0625 17.1562 18.375L17.5312 18.75H14.2499C13.4999 16.6875 13.1249 14.5312 13.1249 12.375V10.3125H14.4374C14.8124 11.25 14.9999 12.2812 14.9999 13.3125ZM8.43741 18.75C8.53116 15.9375 8.99991 13.2188 9.93741 10.5L10.0312 10.3125H11.2499V12.375C11.2499 14.5312 11.6249 16.6875 12.2812 18.75H8.43741ZM17.4374 26.0625C17.3437 26.1562 17.0624 26.25 16.8749 26.25C16.5937 26.25 16.3124 26.1562 16.1249 25.875C14.8124 24.2812 13.6874 22.5 12.9374 20.625H14.9999C15.6562 22.125 16.5937 23.4375 17.6249 24.75C17.9062 25.125 17.9062 25.6875 17.4374 26.0625Z" fill="white"/>
</svg>
