<svg width="30" height="30" viewBox="0 0 30 30" fill="none" xmlns="http://www.w3.org/2000/svg">
<g clip-path="url(#clip0_13_96)">
<path d="M19.2859 23.2365C16.2859 23.2365 13.9287 20.8794 13.9287 17.8794C13.9287 14.8794 16.2859 12.5222 19.2859 12.5222C22.2859 12.5222 24.643 14.8794 24.643 17.8794C24.643 20.8794 22.2859 23.2365 19.2859 23.2365Z" fill="white"/>
<path d="M28.9286 2.87939H1.07143C0.428571 2.87939 0 3.30797 0 3.95082V25.3794C0 26.0222 0.428571 26.4508 1.07143 26.4508H12.8571V21.7365C12.2143 20.558 11.7857 19.2722 11.7857 17.8794C11.7857 13.7008 15.1071 10.3794 19.2857 10.3794C23.4643 10.3794 26.7857 13.7008 26.7857 17.8794C26.7857 19.2722 26.3571 20.558 25.7143 21.7365V26.4508H28.9286C29.5714 26.4508 30 26.0222 30 25.3794V3.95082C30 3.30797 29.5714 2.87939 28.9286 2.87939ZM8.57143 14.6651H4.28571C3.64286 14.6651 3.21429 14.2365 3.21429 13.5937C3.21429 12.9508 3.64286 12.5223 4.28571 12.5223H8.57143C9.21429 12.5223 9.64286 12.9508 9.64286 13.5937C9.64286 14.2365 9.21429 14.6651 8.57143 14.6651ZM11.7857 10.3794H4.28571C3.64286 10.3794 3.21429 9.95082 3.21429 9.30797C3.21429 8.66511 3.64286 8.23654 4.28571 8.23654H11.7857C12.4286 8.23654 12.8571 8.66511 12.8571 9.30797C12.8571 9.95082 12.4286 10.3794 11.7857 10.3794Z" fill="white"/>
<path d="M19.2857 25.3792C17.6786 25.3792 16.1786 24.8435 15 23.9863V30.7363C15 31.0578 15.2143 31.3792 15.4286 31.5935C15.75 31.8078 16.0714 31.8078 16.3929 31.7006L19.2857 30.7363L22.1786 31.7006C22.2857 31.7006 22.3929 31.8078 22.5 31.8078C22.7143 31.8078 22.9286 31.7006 23.1429 31.5935C23.4643 31.3792 23.5714 31.0578 23.5714 30.7363V23.9863C22.3929 24.8435 20.8929 25.3792 19.2857 25.3792Z" fill="white"/>
</g>
<defs>
<clipPath id="clip0_13_96">
<rect width="30" height="30" fill="white"/>
</clipPath>
</defs>
</svg>
