<svg width="30" height="30" viewBox="0 0 30 30" fill="none" xmlns="http://www.w3.org/2000/svg">
<path d="M15.2812 10.3125H9.375C8.8125 10.3125 8.4375 9.9375 8.4375 9.375C8.4375 8.15625 7.875 7.125 6.9375 6.375C6.65625 6.1875 6.5625 5.90625 6.5625 5.625C6.5625 3 8.71875 0.9375 11.25 0.9375H22.5C23.0625 0.9375 23.4375 1.3125 23.4375 1.875V5.625C23.4375 6.1875 23.0625 6.5625 22.5 6.5625H20.3438C18.4688 6.5625 16.6875 7.875 16.125 9.65625C16.0313 10.0312 15.6562 10.3125 15.2812 10.3125Z" fill="white"/>
<path d="M22.5004 13.125C22.3129 13.125 22.2191 13.125 22.1254 13.0312L21.8441 12.8437C19.4066 11.625 17.6254 9.37499 16.9691 6.74999C16.8754 6.28124 17.1566 5.71874 17.6254 5.62499C18.0941 5.53124 18.6566 5.81249 18.7504 6.28124C19.3129 8.43749 20.7191 10.2187 22.6879 11.1562L22.9691 11.3437C23.4379 11.5312 23.6254 12.0937 23.3441 12.5625C23.1566 12.9375 22.8754 13.125 22.5004 13.125Z" fill="white"/>
<path d="M19.8754 18.4688L18.3754 17.0625C17.3441 16.125 16.7816 14.7188 16.7816 13.3125C16.7816 11.8125 16.4066 10.3125 15.7504 8.90625C15.6566 8.625 15.3754 8.4375 15.0004 8.4375H9.3754C9.0004 8.4375 8.6254 8.71875 8.53165 9.09375L8.2504 9.9375C5.90665 16.3125 6.09415 23.25 8.53165 29.4375C8.6254 29.8125 9.0004 30 9.3754 30H20.6254C21.0941 30 21.4691 29.625 21.5629 29.1562L22.1254 24.9375C22.4066 22.5938 21.5629 20.25 19.8754 18.4688ZM15.0004 13.3125C15.0004 15.1875 15.7504 17.0625 17.1566 18.375L17.5316 18.75H14.2504C13.5004 16.6875 13.1254 14.5312 13.1254 12.375V10.3125H14.4379C14.8129 11.25 15.0004 12.2812 15.0004 13.3125ZM8.4379 18.75C8.53165 15.9375 9.0004 13.2188 9.9379 10.5L10.0316 10.3125H11.2504V12.375C11.2504 14.5312 11.6254 16.6875 12.2816 18.75H8.4379ZM17.4379 26.0625C17.3441 26.1562 17.0629 26.25 16.8754 26.25C16.5941 26.25 16.3129 26.1562 16.1254 25.875C14.8129 24.2812 13.6879 22.5 12.9379 20.625H15.0004C15.6566 22.125 16.5941 23.4375 17.6254 24.75C17.9066 25.125 17.9066 25.6875 17.4379 26.0625Z" fill="white"/>
</svg>
