<svg width="30" height="30" viewBox="0 0 30 30" fill="none" xmlns="http://www.w3.org/2000/svg">
<g clip-path="url(#clip0_41_366)">
<path d="M19.2859 23.2366C16.2859 23.2366 13.9287 20.8795 13.9287 17.8795C13.9287 14.8795 16.2859 12.5223 19.2859 12.5223C22.2859 12.5223 24.643 14.8795 24.643 17.8795C24.643 20.8795 22.2859 23.2366 19.2859 23.2366Z" fill="white"/>
<path d="M28.9286 2.87952H1.07143C0.428571 2.87952 0 3.30809 0 3.95095V25.3795C0 26.0224 0.428571 26.4509 1.07143 26.4509H12.8571V21.7367C12.2143 20.5581 11.7857 19.2724 11.7857 17.8795C11.7857 13.7009 15.1071 10.3795 19.2857 10.3795C23.4643 10.3795 26.7857 13.7009 26.7857 17.8795C26.7857 19.2724 26.3571 20.5581 25.7143 21.7367V26.4509H28.9286C29.5714 26.4509 30 26.0224 30 25.3795V3.95095C30 3.30809 29.5714 2.87952 28.9286 2.87952ZM8.57143 14.6652H4.28571C3.64286 14.6652 3.21429 14.2367 3.21429 13.5938C3.21429 12.9509 3.64286 12.5224 4.28571 12.5224H8.57143C9.21429 12.5224 9.64286 12.9509 9.64286 13.5938C9.64286 14.2367 9.21429 14.6652 8.57143 14.6652ZM11.7857 10.3795H4.28571C3.64286 10.3795 3.21429 9.95094 3.21429 9.30809C3.21429 8.66523 3.64286 8.23666 4.28571 8.23666H11.7857C12.4286 8.23666 12.8571 8.66523 12.8571 9.30809C12.8571 9.95094 12.4286 10.3795 11.7857 10.3795Z" fill="white"/>
<path d="M19.2857 25.3794C17.6786 25.3794 16.1786 24.8437 15 23.9866V30.7366C15 31.058 15.2143 31.3794 15.4286 31.5937C15.75 31.808 16.0714 31.808 16.3929 31.7009L19.2857 30.7366L22.1786 31.7009C22.2857 31.7009 22.3929 31.808 22.5 31.808C22.7143 31.808 22.9286 31.7009 23.1429 31.5937C23.4643 31.3794 23.5714 31.058 23.5714 30.7366V23.9866C22.3929 24.8437 20.8929 25.3794 19.2857 25.3794Z" fill="white"/>
</g>
<defs>
<clipPath id="clip0_41_366">
<rect width="30" height="30" fill="white"/>
</clipPath>
</defs>
</svg>
