<svg width="30" height="25" viewBox="0 0 30 25" fill="none" xmlns="http://www.w3.org/2000/svg">
<path d="M20.3766 3.00244H16.35C15.975 3.00244 15.6141 3.14318 15.3375 3.39651L10.7297 7.61871C10.725 7.6234 10.7203 7.63278 10.7156 7.63748C9.9375 8.36932 9.95156 9.53746 10.6172 10.2646C11.2125 10.9167 12.4641 11.0903 13.2469 10.3913C13.2516 10.3866 13.2609 10.3866 13.2656 10.3819L17.0109 6.94785C17.3156 6.67106 17.7938 6.68983 18.0703 6.99476C18.3516 7.2997 18.3281 7.77352 18.0234 8.055L16.8 9.17623L23.625 14.7214C23.7609 14.834 23.8828 14.9559 23.9953 15.0826V6.00489L21.4359 3.44343C21.1594 3.16195 20.775 3.00244 20.3766 3.00244ZM25.5 6.01427V16.5182C25.5 17.3485 26.1703 18.0194 27 18.0194H30V6.01427H25.5ZM27.75 16.5182C27.3375 16.5182 27 16.1804 27 15.7675C27 15.3547 27.3375 15.0169 27.75 15.0169C28.1625 15.0169 28.5 15.3547 28.5 15.7675C28.5 16.1804 28.1625 16.5182 27.75 16.5182ZM0 18.0147H3C3.82969 18.0147 4.5 17.3438 4.5 16.5135V6.01427H0V18.0147ZM2.25 15.0169C2.6625 15.0169 3 15.3547 3 15.7675C3 16.1804 2.6625 16.5182 2.25 16.5182C1.8375 16.5182 1.5 16.1804 1.5 15.7675C1.5 15.35 1.8375 15.0169 2.25 15.0169ZM22.6828 15.8895L15.6844 10.2036L14.2781 11.4937C12.8859 12.7651 10.7531 12.6431 9.51094 11.2873C8.25 9.90808 8.34844 7.77352 9.71719 6.51625L13.5516 3.00244H9.62344C9.225 3.00244 8.84531 3.16195 8.56406 3.44343L6 6.00489V16.5088H6.85781L11.1 20.351C12.3844 21.3971 14.2734 21.2001 15.3187 19.9147L15.3281 19.9053L16.1672 20.6325C16.9125 21.2423 18.0141 21.125 18.6188 20.3791L20.0906 18.5683L20.3438 18.7747C20.9859 19.2954 21.9328 19.2016 22.4531 18.5542L22.8984 18.0053C23.4234 17.3579 23.325 16.415 22.6828 15.8895Z" fill="white"/>
</svg>
