<svg width="20" height="20" viewBox="0 0 20 20" fill="none" xmlns="http://www.w3.org/2000/svg">
<path d="M19.8255 4.35277C19.7736 4.27654 19.7035 4.21441 19.6215 4.17198C19.5395 4.12954 19.4483 4.10814 19.3559 4.10969H3.35491C3.19838 2.52968 3.05924 1.33165 3.05924 1.29693C3.04209 1.14807 2.97046 1.01079 2.8581 0.91145C2.74575 0.812106 2.60059 0.7577 2.4505 0.758682H0.711262C0.62391 0.743781 0.534353 0.7481 0.448847 0.771336C0.363341 0.794573 0.283947 0.836166 0.216214 0.89321C0.14848 0.950255 0.0940384 1.02138 0.0566934 1.1016C0.0193484 1.18183 0 1.26923 0 1.3577C0 1.44616 0.0193484 1.53356 0.0566934 1.61379C0.0940384 1.69402 0.14848 1.76514 0.216214 1.82218C0.283947 1.87923 0.363341 1.92082 0.448847 1.94406C0.534353 1.96729 0.62391 1.97161 0.711262 1.95671H1.94612C2.15483 4.02288 2.86792 11.0895 3.04185 12.3744C3.21577 13.6592 3.5984 14.8225 5.28547 15.1003C4.98914 15.3086 4.7464 15.5839 4.57712 15.9038C4.40783 16.2237 4.31681 16.579 4.31149 16.9408C4.31149 17.5532 4.5552 18.1406 4.98901 18.5736C5.42282 19.0067 6.01119 19.25 6.62469 19.25C7.23818 19.25 7.82655 19.0067 8.26036 18.5736C8.69417 18.1406 8.93788 17.5532 8.93788 16.9408C8.93938 16.3366 8.70186 15.7563 8.27697 15.326L10.5032 15.4996L12.712 15.6906C12.4609 16.0537 12.3218 16.4823 12.312 16.9234C12.312 17.5358 12.5557 18.1232 12.9895 18.5563C13.4233 18.9893 14.0117 19.2326 14.6252 19.2326C15.2387 19.2326 15.8271 18.9893 16.2609 18.5563C16.6947 18.1232 16.9384 17.5358 16.9384 16.9234C16.9334 16.4176 16.7597 15.9279 16.4447 15.5317C16.1298 15.1354 15.6915 14.8554 15.1992 14.7357C15.1128 14.6703 15.0109 14.6284 14.9035 14.6141C14.1556 14.6141 12.3642 14.4405 10.5554 14.2843C8.74656 14.128 6.64208 13.9717 5.82464 13.937C4.69413 13.937 4.34628 13.5203 4.08539 12.2007L17.6863 11.8535C17.8188 11.8533 17.9474 11.8087 18.0514 11.7268C18.1555 11.645 18.229 11.5306 18.2602 11.402L19.9995 4.8042C20.003 4.72108 19.9893 4.63812 19.9594 4.56047C19.9295 4.48281 19.8839 4.41212 19.8255 4.35277ZM14.6078 17.9999C14.3172 17.9999 14.0385 17.8846 13.833 17.6795C13.6275 17.4744 13.5121 17.1961 13.5121 16.906C13.5119 16.6172 13.6244 16.3397 13.8257 16.1323C14.027 15.9249 14.3013 15.8038 14.5904 15.7948C14.8595 15.8286 15.1069 15.9592 15.2863 16.1622C15.4657 16.3653 15.5647 16.6266 15.5647 16.8973C15.5647 17.1681 15.4657 17.4294 15.2863 17.6325C15.1069 17.8355 14.8595 17.9661 14.5904 17.9999H14.6078ZM6.53772 17.9999C6.31613 18.0033 6.09855 17.9406 5.91286 17.8199C5.72716 17.6991 5.58181 17.5257 5.49541 17.322C5.40902 17.1182 5.38551 16.8934 5.42791 16.6762C5.4703 16.4591 5.57666 16.2595 5.73337 16.1031C5.89009 15.9466 6.09001 15.8404 6.30754 15.7981C6.52507 15.7558 6.75031 15.7793 6.9544 15.8655C7.15849 15.9517 7.33214 16.0969 7.45312 16.2822C7.57409 16.4676 7.63688 16.6848 7.63345 16.906C7.63345 17.0497 7.6051 17.1919 7.55004 17.3246C7.49497 17.4573 7.41427 17.5779 7.31252 17.6795C7.21077 17.7811 7.08998 17.8616 6.95704 17.9166C6.8241 17.9716 6.68162 17.9999 6.53772 17.9999ZM17.1471 10.7075L4.01582 10.968C4.01582 10.3429 3.85929 9.57895 3.77233 8.74554H8.64221C8.81446 8.74102 8.97813 8.66951 9.09834 8.54626C9.21855 8.42302 9.28579 8.25778 9.28573 8.08576C9.28573 7.91538 9.21793 7.75198 9.09724 7.6315C8.97656 7.51102 8.81288 7.44334 8.64221 7.44334H3.68537L3.47666 5.32508H18.5733L17.1471 10.7075Z" fill="#DF0D00"/>
</svg>
