<svg width="24" height="24" viewBox="0 0 24 24" fill="none" xmlns="http://www.w3.org/2000/svg">
<g clip-path="url(#clip0_42_495)">
<path d="M21.6004 24V0H6.00039C5.04561 0 4.12994 0.379285 3.45481 1.05442C2.77968 1.72955 2.40039 2.64522 2.40039 3.6V20.4C2.40039 21.3548 2.77968 22.2705 3.45481 22.9456C4.12994 23.6207 5.04561 24 6.00039 24H21.6004ZM7.20039 4.8H16.8004V7.2H7.20039V4.8ZM4.80039 20.4C4.80261 20.2404 4.83665 20.0828 4.90053 19.9365C4.96441 19.7902 5.05683 19.6581 5.17239 19.548C5.27877 19.4358 5.4073 19.3469 5.54984 19.287C5.69237 19.2271 5.8458 19.1975 6.00039 19.2H19.2004V21.6H6.00039C5.68213 21.6 5.37691 21.4736 5.15186 21.2485C4.92682 21.0235 4.80039 20.7183 4.80039 20.4Z" fill="white"/>
</g>
<defs>
<clipPath id="clip0_42_495">
<rect width="24" height="24" fill="white"/>
</clipPath>
</defs>
</svg>
