<svg width="24" height="24" fill="none" xmlns="http://www.w3.org/2000/svg"><path d="M22.574 8.64c-.48-.48-.72-1.08-.72-1.68 0-2.64-2.162-4.8-4.804-4.8-.6 0-1.2-.24-1.68-.72-1.922-1.92-4.924-1.92-6.845 0-.36.48-.96.72-1.56.72-2.642 0-4.804 2.16-4.804 4.8 0 .6-.24 1.2-.72 1.68-1.921 1.92-1.921 4.92 0 6.84.48.48.72 1.08.72 1.68 0 2.64 2.162 4.8 4.803 4.8.6 0 1.201.24 1.681.72.96.84 2.162 1.32 3.362 1.32 1.201 0 2.522-.48 3.362-1.44.48-.48 1.081-.72 1.681-.72 2.642 0 4.803-2.16 4.803-4.8 0-.6.24-1.2.6-1.68 2.042-1.8 2.042-4.92.12-6.72Zm-1.681 5.04c-.96.96-1.441 2.16-1.441 3.36 0 1.32-1.08 2.4-2.402 2.4-1.32 0-2.521.48-3.362 1.44-.96.96-2.401.96-3.362 0-.96-.96-2.161-1.44-3.362-1.44a2.408 2.408 0 0 1-2.401-2.4c0-1.32-.48-2.52-1.441-3.36-.96-.96-.96-2.4 0-3.36s1.44-2.16 1.44-3.36c0-1.32 1.081-2.4 2.402-2.4 1.321 0 2.522-.48 3.362-1.44.48-.48 1.081-.72 1.681-.72.6 0 1.201.24 1.681.72.96.96 2.162 1.44 3.362 1.44 1.321 0 2.402 1.08 2.402 2.4 0 1.32.48 2.52 1.44 3.36.961.96.961 2.4 0 3.36l.841.84-.84-.84Z" fill="#fff"/><path d="M14.409 15.6a1.2 1.2 0 1 0 0-2.4 1.2 1.2 0 0 0 0 2.4ZM9.606 10.8a1.2 1.2 0 1 0 0-2.4 1.2 1.2 0 0 0 0 2.4ZM13.568 8.76l-4.803 4.8c-.48.48-.48 1.2 0 1.68.24.24.48.36.841.36.36 0 .6-.12.84-.36l4.803-4.8c.48-.48.48-1.2 0-1.68s-1.2-.48-1.68 0Z" fill="#fff"/></svg>