<svg width="20" height="20" fill="none" xmlns="http://www.w3.org/2000/svg"><g clip-path="url(#a)" fill="#2B3454"><path d="M9.947 4.824c-2.838 0-5.189 2.31-5.189 5.188a5.173 5.173 0 0 0 5.189 5.189c2.878 0 5.189-2.351 5.189-5.189 0-2.837-2.352-5.188-5.19-5.188Zm0 8.512a3.339 3.339 0 0 1-3.324-3.324c0-1.824 1.5-3.324 3.324-3.324 1.824 0 3.324 1.5 3.324 3.324 0 1.824-1.5 3.324-3.324 3.324ZM15.338 5.878a1.176 1.176 0 1 0 0-2.351 1.176 1.176 0 0 0 0 2.35Z"/><path d="M18.378 1.662C17.325.568 15.825 0 14.122 0h-8.35C2.245 0-.106 2.351-.106 5.878v8.31c0 1.743.568 3.242 1.703 4.337 1.094 1.054 2.553 1.58 4.215 1.58h8.27c1.743 0 3.202-.567 4.256-1.58C19.432 17.47 20 15.97 20 14.228v-8.35c0-1.703-.568-3.162-1.622-4.216Zm-.162 12.566c0 1.257-.446 2.27-1.175 2.96-.73.688-1.743 1.053-2.96 1.053H5.813c-1.216 0-2.23-.365-2.959-1.054-.73-.73-1.094-1.743-1.094-3v-8.31c0-1.215.365-2.229 1.094-2.958.69-.69 1.743-1.054 2.96-1.054h8.35c1.216 0 2.23.364 2.959 1.094.689.73 1.094 1.743 1.094 2.919v8.35Z"/></g><defs><clipPath id="a"><path fill="#fff" d="M0 0h20v20H0z"/></clipPath></defs></svg>