<svg width="22" height="40" viewBox="0 0 22 40" fill="none" xmlns="http://www.w3.org/2000/svg">
<path d="M20.2181 40C20.021 40.0001 19.8258 39.9613 19.6437 39.886C19.4615 39.8106 19.296 39.7001 19.1566 39.5608L0.658154 21.0614C0.376804 20.7799 0.21875 20.3983 0.21875 20.0003C0.21875 19.6024 0.376804 19.2207 0.658154 18.9393L19.1566 0.439851C19.2959 0.300448 19.4613 0.189854 19.6434 0.114384C19.8255 0.0389142 20.0207 4.64993e-05 20.2178 4.16963e-08C20.4149 -4.64159e-05 20.61 0.0387295 20.7922 0.114113C20.9743 0.189497 21.1398 0.300013 21.2792 0.439351C21.4186 0.578689 21.5292 0.74412 21.6046 0.926198C21.6801 1.10828 21.719 1.30344 21.719 1.50054C21.7191 1.69764 21.6803 1.89282 21.6049 2.07493C21.5295 2.25705 21.419 2.42253 21.2797 2.56193L3.84178 19.9998L21.2797 37.4377C21.4897 37.6476 21.6327 37.9151 21.6907 38.2063C21.7487 38.4975 21.7189 38.7993 21.6053 39.0736C21.4916 39.348 21.2992 39.5824 21.0523 39.7473C20.8053 39.9122 20.515 40.0001 20.2181 40Z" fill="#fff"/>
</svg>
