<svg width="16" height="16" viewBox="0 0 16 16" fill="none" xmlns="http://www.w3.org/2000/svg">
<g clip-path="url(#clip0_42_507)">
<path d="M10.7068 15.5C10.6329 15.5 10.5597 15.4855 10.4914 15.4572C10.4231 15.429 10.361 15.3875 10.3087 15.3353L3.37181 8.39801C3.2663 8.29247 3.20703 8.14935 3.20703 8.00012C3.20703 7.85089 3.2663 7.70777 3.37181 7.60223L10.3087 0.664944C10.361 0.612668 10.423 0.571195 10.4913 0.542894C10.5596 0.514593 10.6327 0.500017 10.7067 0.5C10.7806 0.499983 10.8538 0.514524 10.9221 0.542793C10.9904 0.571062 11.0524 0.612505 11.1047 0.664757C11.157 0.717008 11.1984 0.779045 11.2267 0.847324C11.255 0.915604 11.2696 0.988789 11.2696 1.0627C11.2696 1.13661 11.2551 1.20981 11.2268 1.2781C11.1986 1.34639 11.1571 1.40845 11.1049 1.46072L4.56567 7.99993L11.1049 14.5391C11.1836 14.6178 11.2373 14.7181 11.259 14.8273C11.2807 14.9366 11.2696 15.0497 11.227 15.1526C11.1844 15.2555 11.1122 15.3434 11.0196 15.4052C10.927 15.4671 10.8181 15.5 10.7068 15.5Z" fill="#444444"/>
</g>
<defs>
<clipPath id="clip0_42_507">
<rect width="15" height="15" fill="white" transform="translate(0.5 0.5)"/>
</clipPath>
</defs>
</svg>
