<svg width="0" height="0" class="hidden">
  <symbol fill="none" xmlns="http://www.w3.org/2000/svg" viewBox="0 0 20 20" id="instagram">
    <g clip-path="url(#a)" fill="currentColor">
      <path d="M9.947 4.824c-2.838 0-5.189 2.31-5.189 5.188a5.173 5.173 0 0 0 5.189 5.189c2.878 0 5.189-2.351 5.189-5.189 0-2.837-2.352-5.188-5.19-5.188Zm0 8.512a3.339 3.339 0 0 1-3.324-3.324c0-1.824 1.5-3.324 3.324-3.324 1.824 0 3.324 1.5 3.324 3.324 0 1.824-1.5 3.324-3.324 3.324ZM15.338 5.878a1.176 1.176 0 1 0 0-2.351 1.176 1.176 0 0 0 0 2.35Z"></path>
      <path d="M18.378 1.662C17.325.568 15.825 0 14.122 0h-8.35C2.245 0-.106 2.351-.106 5.878v8.31c0 1.743.568 3.242 1.703 4.337 1.094 1.054 2.553 1.58 4.215 1.58h8.27c1.743 0 3.202-.567 4.256-1.58C19.432 17.47 20 15.97 20 14.228v-8.35c0-1.703-.568-3.162-1.622-4.216Zm-.162 12.566c0 1.257-.446 2.27-1.175 2.96-.73.688-1.743 1.053-2.96 1.053H5.813c-1.216 0-2.23-.365-2.959-1.054-.73-.73-1.094-1.743-1.094-3v-8.31c0-1.215.365-2.229 1.094-2.958.69-.69 1.743-1.054 2.96-1.054h8.35c1.216 0 2.23.364 2.959 1.094.689.73 1.094 1.743 1.094 2.919v8.35Z"></path>
    </g>
    <defs>
      <clipPath id="a">
        <path fill="#fff" d="M0 0h20v20H0z"></path>
      </clipPath>
    </defs>
  </symbol>
  <symbol fill="none" xmlns="http://www.w3.org/2000/svg" viewBox="0 0 12 12" id="arrow">
    <g clip-path="url(#a)">
      <path d="M3.235 0a.45.45 0 0 1 .318.132l5.55 5.55a.45.45 0 0 1 0 .636l-5.55 5.55a.45.45 0 1 1-.637-.637l5.231-5.23L2.917.768A.45.45 0 0 1 3.234 0Z" fill="currentColor"></path>
    </g>
    <defs>
      <clipPath id="a">
        <path fill="#fff" transform="rotate(-180 6 6)" d="M0 0h12v12H0z"></path>
      </clipPath>
    </defs>
  </symbol>
  <symbol fill="none" xmlns="http://www.w3.org/2000/svg" viewBox="0 0 20 20" id="youtube">
    <path d="M19.582 5.186a2.504 2.504 0 0 0-1.768-1.768C16.254 3 10 3 10 3s-6.254 0-7.814.418c-.86.23-1.538.908-1.768 1.768C0 6.746 0 10 0 10s0 3.254.418 4.814c.23.86.908 1.538 1.768 1.768C3.746 17 10 17 10 17s6.254 0 7.814-.418a2.505 2.505 0 0 0 1.768-1.768C20 13.254 20 10 20 10s0-3.254-.418-4.814ZM8 13V7l5.196 3L8 13Z" fill="currentColor"></path>
  </symbol>
  <symbol fill="none" xmlns="http://www.w3.org/2000/svg" viewBox="0 0 14 14" id="whatsapp">
    <g clip-path="url(#a)" fill-rule="evenodd" clip-rule="evenodd" fill="#fff">
      <path d="M11.96 2.035A6.942 6.942 0 0 0 7.03 0C3.186 0 .06 3.112.057 6.937c0 1.223.32 2.416.93 3.468L0 14l3.695-.965a6.99 6.99 0 0 0 3.331.845h.003c3.842 0 6.97-3.113 6.971-6.938a6.879 6.879 0 0 0-2.04-4.907ZM7.03 12.708h-.003c-1.04 0-2.06-.278-2.949-.804l-.211-.125-2.193.573.585-2.128-.138-.218a5.732 5.732 0 0 1-.886-3.069c.002-3.179 2.6-5.765 5.797-5.765 1.547 0 3.002.6 4.096 1.69a5.717 5.717 0 0 1 1.695 4.08c-.001 3.18-2.6 5.766-5.794 5.766Z"></path>
      <path d="M10.207 8.39c-.174-.087-1.03-.506-1.19-.564-.16-.058-.276-.087-.392.086-.116.174-.45.564-.551.68-.102.116-.203.13-.378.043-.174-.086-.735-.27-1.4-.86a5.228 5.228 0 0 1-.97-1.2c-.1-.174-.01-.268.077-.355.079-.077.174-.202.261-.303.088-.101.117-.174.175-.29.058-.115.029-.216-.015-.303-.043-.087-.392-.94-.537-1.287-.141-.338-.285-.292-.392-.298a6.996 6.996 0 0 0-.334-.006.641.641 0 0 0-.464.217c-.16.174-.61.593-.61 1.446s.624 1.678.712 1.793c.087.116 1.228 1.867 2.975 2.618.415.178.74.285.993.365.417.132.797.113 1.097.069.335-.05 1.03-.42 1.176-.825.145-.405.145-.752.101-.824-.043-.072-.16-.116-.334-.202Z"></path>
    </g>
    <defs>
      <clipPath id="a">
        <path fill="#fff" d="M0 0h14v14H0z"></path>
      </clipPath>
    </defs>
  </symbol>
  <symbol fill="none" xmlns="http://www.w3.org/2000/svg" viewBox="0 0 20 20" id="cart">
    <path d="M19.826 4.353a.556.556 0 0 0-.47-.243H3.355c-.157-1.58-.296-2.778-.296-2.813A.607.607 0 0 0 2.45.759H.711a.61.61 0 0 0-.654.855.608.608 0 0 0 .654.343h1.235c.209 2.066.922 9.133 1.096 10.417.174 1.285.556 2.448 2.243 2.726a2.293 2.293 0 0 0-.974 1.84 2.315 2.315 0 0 0 4.626 0 2.29 2.29 0 0 0-.66-1.614l2.226.174 2.209.19c-.251.364-.39.792-.4 1.233a2.307 2.307 0 0 0 2.313 2.31c.614 0 1.202-.244 1.636-.677.434-.433.677-1.02.677-1.633a2.272 2.272 0 0 0-1.739-2.187.627.627 0 0 0-.296-.122c-.747 0-2.539-.174-4.348-.33-1.808-.156-3.913-.312-4.73-.347-1.13 0-1.479-.417-1.74-1.736l13.601-.348a.592.592 0 0 0 .574-.451L20 4.804a.607.607 0 0 0-.174-.451ZM14.608 18a1.097 1.097 0 0 1-.782-1.868c.201-.207.475-.328.764-.337a1.114 1.114 0 0 1 .975 1.102A1.11 1.11 0 0 1 14.59 18h.018Zm-8.07 0a1.115 1.115 0 0 1-1.043-.678 1.11 1.11 0 0 1 .813-1.524 1.115 1.115 0 0 1 1.005 1.882 1.096 1.096 0 0 1-.775.32Zm10.61-7.293-13.132.261c0-.625-.157-1.389-.244-2.222h4.87a.661.661 0 0 0 .644-.66.642.642 0 0 0-.644-.643H3.685l-.208-2.118h15.096l-1.426 5.382Z" fill="currentColor"></path>
  </symbol>
  <symbol fill="none" xmlns="http://www.w3.org/2000/svg" viewBox="0 0 24 24" id="discount">
    <path d="M22.574 8.64c-.48-.48-.72-1.08-.72-1.68 0-2.64-2.162-4.8-4.804-4.8-.6 0-1.2-.24-1.68-.72-1.922-1.92-4.924-1.92-6.845 0-.36.48-.96.72-1.56.72-2.642 0-4.804 2.16-4.804 4.8 0 .6-.24 1.2-.72 1.68-1.921 1.92-1.921 4.92 0 6.84.48.48.72 1.08.72 1.68 0 2.64 2.162 4.8 4.803 4.8.6 0 1.201.24 1.681.72.96.84 2.162 1.32 3.362 1.32 1.201 0 2.522-.48 3.362-1.44.48-.48 1.081-.72 1.681-.72 2.642 0 4.803-2.16 4.803-4.8 0-.6.24-1.2.6-1.68 2.042-1.8 2.042-4.92.12-6.72Zm-1.681 5.04c-.96.96-1.441 2.16-1.441 3.36 0 1.32-1.08 2.4-2.402 2.4-1.32 0-2.521.48-3.362 1.44-.96.96-2.401.96-3.362 0-.96-.96-2.161-1.44-3.362-1.44a2.408 2.408 0 0 1-2.401-2.4c0-1.32-.48-2.52-1.441-3.36-.96-.96-.96-2.4 0-3.36s1.44-2.16 1.44-3.36c0-1.32 1.081-2.4 2.402-2.4 1.321 0 2.522-.48 3.362-1.44.48-.48 1.081-.72 1.681-.72.6 0 1.201.24 1.681.72.96.96 2.162 1.44 3.362 1.44 1.321 0 2.402 1.08 2.402 2.4 0 1.32.48 2.52 1.44 3.36.961.96.961 2.4 0 3.36l.841.84-.84-.84Z" fill="currentColor"></path>
    <path d="M14.409 15.6a1.2 1.2 0 1 0 0-2.4 1.2 1.2 0 0 0 0 2.4ZM9.606 10.8a1.2 1.2 0 1 0 0-2.4 1.2 1.2 0 0 0 0 2.4ZM13.568 8.76l-4.803 4.8c-.48.48-.48 1.2 0 1.68.24.24.48.36.841.36.36 0 .6-.12.84-.36l4.803-4.8c.48-.48.48-1.2 0-1.68s-1.2-.48-1.68 0Z" fill="currentColor"></path>
  </symbol>
  <symbol fill="none" xmlns="http://www.w3.org/2000/svg" viewBox="0 0 20 20" id="facebook">
    <path d="M11.6667 6.66667V4.68229C11.6667 3.78646 11.8646 3.33333 13.2552 3.33333H15V0H12.0885C8.52083 0 7.34375 1.63542 7.34375 4.44271V6.66667H5V10H7.34375V20H11.6667V10H14.6042L15 6.66667H11.6667Z" fill="currentColor"></path>
  </symbol>
  <symbol fill="none" xmlns="http://www.w3.org/2000/svg" viewBox="0 0 16 16" id="slider-arrow2">
    <g>
      <path d="M10.7068 15.5C10.6329 15.5 10.5597 15.4855 10.4914 15.4572C10.4231 15.429 10.361 15.3875 10.3087 15.3353L3.37181 8.39801C3.2663 8.29247 3.20703 8.14935 3.20703 8.00012C3.20703 7.85089 3.2663 7.70777 3.37181 7.60223L10.3087 0.664944C10.361 0.612668 10.423 0.571195 10.4913 0.542894C10.5596 0.514593 10.6327 0.500017 10.7067 0.5C10.7806 0.499983 10.8538 0.514524 10.9221 0.542793C10.9904 0.571062 11.0524 0.612505 11.1047 0.664757C11.157 0.717008 11.1984 0.779045 11.2267 0.847324C11.255 0.915604 11.2696 0.988789 11.2696 1.0627C11.2696 1.13661 11.2551 1.20981 11.2268 1.2781C11.1986 1.34639 11.1571 1.40845 11.1049 1.46072L4.56567 7.99993L11.1049 14.5391C11.1836 14.6178 11.2373 14.7181 11.259 14.8273C11.2807 14.9366 11.2696 15.0497 11.227 15.1526C11.1844 15.2555 11.1122 15.3434 11.0196 15.4052C10.927 15.4671 10.8181 15.5 10.7068 15.5Z" fill="currentColor"></path>
    </g>
  </symbol>
  <symbol fill="none" xmlns="http://www.w3.org/2000/svg" viewBox="0 0 24 24" id="catalog">
    <g clip-path="url(#clip0_42_495)">
      <path d="M21.6004 24V0H6.00039C5.04561 0 4.12994 0.379285 3.45481 1.05442C2.77968 1.72955 2.40039 2.64522 2.40039 3.6V20.4C2.40039 21.3548 2.77968 22.2705 3.45481 22.9456C4.12994 23.6207 5.04561 24 6.00039 24H21.6004ZM7.20039 4.8H16.8004V7.2H7.20039V4.8ZM4.80039 20.4C4.80261 20.2404 4.83665 20.0828 4.90053 19.9365C4.96441 19.7902 5.05683 19.6581 5.17239 19.548C5.27877 19.4358 5.4073 19.3469 5.54984 19.287C5.69237 19.2271 5.8458 19.1975 6.00039 19.2H19.2004V21.6H6.00039C5.68213 21.6 5.37691 21.4736 5.15186 21.2485C4.92682 21.0235 4.80039 20.7183 4.80039 20.4Z" fill="currentColor"></path>
    </g>
    <defs>
      <clipPath id="clip0_42_495">
        <rect width="24" height="24" fill="white"></rect>
      </clipPath>
    </defs>
  </symbol>
</svg>