<svg width="14" height="14" fill="none" xmlns="http://www.w3.org/2000/svg"><g clip-path="url(#a)" fill-rule="evenodd" clip-rule="evenodd" fill="#fff"><path d="M11.96 2.035A6.942 6.942 0 0 0 7.03 0C3.186 0 .06 3.112.057 6.937c0 1.223.32 2.416.93 3.468L0 14l3.695-.965a6.99 6.99 0 0 0 3.331.845h.003c3.842 0 6.97-3.113 6.971-6.938a6.879 6.879 0 0 0-2.04-4.907ZM7.03 12.708h-.003c-1.04 0-2.06-.278-2.949-.804l-.211-.125-2.193.573.585-2.128-.138-.218a5.732 5.732 0 0 1-.886-3.069c.002-3.179 2.6-5.765 5.797-5.765 1.547 0 3.002.6 4.096 1.69a5.717 5.717 0 0 1 1.695 4.08c-.001 3.18-2.6 5.766-5.794 5.766Z"/><path d="M10.207 8.39c-.174-.087-1.03-.506-1.19-.564-.16-.058-.276-.087-.392.086-.116.174-.45.564-.551.68-.102.116-.203.13-.378.043-.174-.086-.735-.27-1.4-.86a5.228 5.228 0 0 1-.97-1.2c-.1-.174-.01-.268.077-.355.079-.077.174-.202.261-.303.088-.101.117-.174.175-.29.058-.115.029-.216-.015-.303-.043-.087-.392-.94-.537-1.287-.141-.338-.285-.292-.392-.298a6.996 6.996 0 0 0-.334-.006.641.641 0 0 0-.464.217c-.16.174-.61.593-.61 1.446s.624 1.678.712 1.793c.087.116 1.228 1.867 2.975 2.618.415.178.74.285.993.365.417.132.797.113 1.097.069.335-.05 1.03-.42 1.176-.825.145-.405.145-.752.101-.824-.043-.072-.16-.116-.334-.202Z"/></g><defs><clipPath id="a"><path fill="#fff" d="M0 0h14v14H0z"/></clipPath></defs></svg>